<svg width="18" height="18" viewBox="0 0 18 18" fill="none" xmlns="http://www.w3.org/2000/svg">
<path d="M4.54264 6.29138L4.4909 6.26212L4.19289 6.09313C3.95714 5.95963 3.67714 5.92813 3.41789 5.97363C3.1458 6.05504 2.90707 6.22174 2.73689 6.44913C2.54581 6.70287 2.35572 6.95737 2.16664 7.21263C2.00759 7.48372 1.84909 7.75514 1.69114 8.02688C1.64411 8.10756 1.61389 8.19693 1.60229 8.2896C1.59069 8.38227 1.59795 8.47633 1.62364 8.56612C1.65921 8.69156 1.72885 8.80467 1.82485 8.8929C1.92084 8.98112 2.03941 9.041 2.16739 9.06588C2.59214 9.14913 3.28114 9.21588 4.01714 9.00663C4.12964 8.97463 4.25014 8.99388 4.34114 9.06738C4.60864 9.28363 5.14164 9.79137 5.23064 10.4604C5.25289 10.6284 5.40414 10.7491 5.57364 10.7509C5.97839 10.7556 6.60514 10.8779 6.60514 11.5921C6.60514 11.6271 6.5669 12.4624 6.54189 13.0046C6.52789 13.3096 6.5534 13.6139 6.61765 13.9124C6.63478 13.9916 6.67852 14.0626 6.7416 14.1136C6.80469 14.1645 6.88331 14.1923 6.9644 14.1924H7.10915C7.27665 14.1924 7.42165 14.0749 7.45615 13.9106L7.96065 11.5106C7.97982 11.4198 8.03382 11.3401 8.11107 11.2886C8.18832 11.2371 8.28267 11.2179 8.37389 11.2351L8.89439 11.3339C8.92273 11.3394 8.95123 11.3413 8.97989 11.3396L12.0024 11.1736C12.0431 11.1715 12.0822 11.1625 12.1199 11.1469L12.6366 10.9309H14.6366C14.6 10.8915 14.5728 10.8443 14.5571 10.7929C14.5414 10.7415 14.5376 10.6872 14.5459 10.6341L14.8861 8.47113C14.8915 8.43813 14.8921 8.40504 14.8879 8.37187C14.8629 8.18087 14.7644 7.47113 14.5971 6.86788C14.4521 6.34638 13.9776 5.98638 13.4366 5.97338L8.62864 5.85838C8.13781 5.84682 7.64677 5.86971 7.15914 5.92688L6.1919 6.04038C5.87546 6.07771 5.56088 6.12943 5.24914 6.19538L4.28989 6.39837L4.54264 6.29138Z" fill="#FF9999"/>
<path d="M5.73712 5.9554C5.37337 5.9404 5.09962 5.9799 4.83912 6.06865L4.30937 6.2494C4.30937 6.2494 2.94562 6.70315 2.94312 7.9659C2.94062 9.2284 3.83462 9.2084 3.83462 9.2084C4.10182 9.20832 4.3627 9.28965 4.58252 9.44154C4.80235 9.59344 4.97069 9.80869 5.06512 10.0586C5.12862 10.2271 5.17787 10.4134 5.19687 10.6101C5.24637 11.1276 5.66737 11.3301 5.94912 11.4084C6.14162 11.4616 6.31362 11.5709 6.45162 11.7151C6.56162 11.8309 6.62012 11.9864 6.61312 12.1461L6.58637 12.7546C6.571 13.1065 6.52871 13.4567 6.45987 13.8021C6.45315 13.8366 6.45757 13.8722 6.4725 13.904C6.48742 13.9357 6.51207 13.9619 6.54287 13.9786C6.72993 14.0795 6.9489 14.1035 7.15337 14.0456C7.24567 14.0195 7.32935 13.9693 7.39578 13.9C7.46222 13.8308 7.50902 13.7452 7.53137 13.6519L8.14537 11.0956L8.16187 10.9651C8.24854 10.283 8.2397 9.5921 8.13562 8.9124C8.06312 8.43815 7.99062 7.96215 7.98037 7.88665C7.94381 7.6158 7.90063 7.34588 7.85087 7.07715C7.71287 6.3349 7.05287 5.9839 6.29862 5.95215L5.73712 5.9554Z" fill="#A53939"/>
<path d="M15.3933 11.4219L15.4646 11.5759C15.4841 11.6184 15.4953 11.6642 15.4976 11.7109L15.5906 13.6309C15.5966 13.7539 15.5401 13.8714 15.4406 13.9434L15.1736 14.1374C15.0964 14.1934 15.0004 14.2169 14.9061 14.2029L14.3758 14.1242C14.3241 14.1165 14.2747 14.0978 14.2308 14.0694C14.187 14.0409 14.1498 14.0033 14.1218 13.9592C14.0937 13.9151 14.0755 13.8655 14.0684 13.8137C14.0612 13.7619 14.0653 13.7092 14.0803 13.6592L14.5803 10.4092L15.3933 11.4219Z" fill="#6A2F2F"/>
<path d="M10.4642 5.95518C10.2952 5.94918 10.2315 5.93893 10.3375 6.07068C10.7062 6.52893 11.265 7.45568 11.251 8.85443C11.238 10.1564 11.9165 10.6309 12.4272 10.8034C12.779 10.9224 13.0542 11.1997 13.1445 11.5599C13.1945 11.7592 13.1962 11.9674 13.1495 12.1677L12.9507 13.0224C12.9082 13.2044 12.9265 13.3949 13.0027 13.5657C13.0479 13.6667 13.1259 13.7496 13.224 13.8009C13.3221 13.8522 13.4347 13.8689 13.5435 13.8484C13.6093 13.8359 13.6709 13.8067 13.7222 13.7635C13.7735 13.7202 13.8127 13.6645 13.8362 13.6017L14.5722 11.6292C14.6185 11.505 14.661 11.3795 14.6995 11.2527C14.8292 10.8254 15.124 8.38643 15.1452 8.24143C15.1461 8.23297 15.1466 8.22445 15.1467 8.21593C15.145 8.05418 15.0732 6.68418 14.3075 6.12543C14.2776 6.10389 14.242 6.09186 14.2052 6.09093L10.4642 5.95518Z" fill="#A53939"/>
<path d="M14.9632 8.31482C15.1002 8.85932 15.0127 9.73632 14.7025 10.4116L14.499 11.7016L13.8725 13.6183C13.8057 13.8221 13.6205 13.9593 13.412 13.9593H13.3475C13.017 13.9593 12.783 13.6268 12.8855 13.3026L13.292 11.5558C13.292 11.5558 12.2587 9.64057 12.5422 8.75282M7.7625 7.96582L8.14525 10.0053L7.51125 13.7871C7.48025 14.0328 7.2795 14.2186 7.03925 14.2236L6.9625 14.2251C6.62925 14.2321 6.388 13.9008 6.4895 13.5733C6.696 12.9073 6.735 11.8306 6.42925 11.0956C6.07975 10.2561 6.241 9.85582 6.241 9.85582" stroke="black" stroke-width="0.5" stroke-linecap="round" stroke-linejoin="round"/>
<path d="M8.93701 11.1251C8.93701 11.1251 11.961 11.4529 12.7815 10.7651M16.3 11.0954C16.3 11.0954 15.758 10.1786 15.99 8.78338C16.289 6.17038 13.8608 5.79788 14.3785 5.92188L14.2935 5.88913L8.49426 5.74313C8.26159 5.73713 8.02959 5.7468 7.79826 5.77213L5.82051 5.98763M14.689 10.4966L15.4773 11.4556L15.461 13.5424C15.461 13.7726 15.2803 13.9591 15.057 13.9591H14.637M1.94751 5.56738C2.44501 6.20163 2.94301 6.20163 2.94301 6.20163" stroke="black" stroke-width="0.5" stroke-linecap="round" stroke-linejoin="round"/>
<path d="M4.74369 5.17383C5.09819 5.88458 4.30919 6.24933 4.30919 6.24933C4.30919 6.24933 3.62994 5.30483 2.94294 6.20183L2.42769 6.82683C2.42769 6.82683 1.89994 7.69433 1.53019 8.19233C1.42744 8.33083 1.61269 8.79858 1.70169 8.94708C1.86669 9.22333 3.03969 9.39358 4.13244 9.00008C4.13244 9.00008 5.04369 9.08183 5.21494 10.7651C5.24769 11.0853 5.89944 11.5193 6.43594 11.4481" stroke="black" stroke-width="0.5" stroke-linecap="round" stroke-linejoin="round"/>
<path d="M4.66333 7.87667C5.85233 8.26492 5.91208 7.26217 5.91208 7.26217V7.19767C5.33358 6.50767 4.79808 7.00342 4.79808 7.00342" stroke="black" stroke-width="0.5" stroke-linecap="round" stroke-linejoin="round"/>
</svg>
