<svg width="16" height="16" viewBox="0 0 16 16" fill="none" xmlns="http://www.w3.org/2000/svg">
<g clip-path="url(#clip0_1605_2)">
<path d="M0.52489 4.89981C0.27489 5.57481 1.42489 7.92481 2.44989 8.19981C4.64989 8.77481 7.97489 7.19981 7.97489 7.19981C7.97489 7.19981 5.17489 5.92481 4.12489 5.54981C1.42489 4.52481 0.69989 4.47481 0.52489 4.89981ZM15.4749 4.89981C15.7249 5.57481 14.5749 7.92481 13.5499 8.19981C11.3499 8.77481 8.02489 7.19981 8.02489 7.19981C8.02489 7.19981 10.8249 5.92481 11.8749 5.54981C14.5749 4.52481 15.2999 4.47481 15.4749 4.89981Z" fill="#89664C"/>
<path d="M13.75 9.75C13.75 12.925 11.175 15.5 8 15.5C4.825 15.5 2.25 12.925 2.25 9.75C2.25 6.575 4.825 4 8 4C11.175 4 13.75 6.575 13.75 9.75Z" fill="#FFDD67"/>
<path d="M11.025 2.87468C10.5 2.09968 11.1 1.67468 10.675 0.974681C10.425 0.524681 10.175 0.324681 9.79995 0.674681C9.19995 1.29968 8.49995 1.54968 7.99995 1.54968C7.49995 1.54968 6.79995 1.29968 6.19995 0.674681C5.82495 0.299681 5.59995 0.524681 5.32495 0.974681C4.89995 1.67468 5.49995 2.09968 4.97495 2.87468C4.64995 3.34968 4.32495 5.19968 4.32495 5.19968L7.99995 5.92468L11.675 5.19968C11.675 5.19968 11.35 3.34968 11.025 2.87468Z" fill="#D3976E"/>
<path d="M5.60005 1.47461C5.60005 1.47461 6.72505 2.22461 6.70005 2.62461C6.67505 3.07461 5.30005 3.87461 5.30005 3.87461C5.30005 3.87461 5.92505 2.89961 5.95005 2.54961C5.97505 2.24961 5.60005 1.47461 5.60005 1.47461Z" fill="#FED0AC"/>
<path d="M10.4 1.47461C10.4 1.47461 9.27497 2.22461 9.29997 2.62461C9.32497 3.07461 10.7 3.87461 10.7 3.87461C10.7 3.87461 10.075 2.89961 10.05 2.54961C10.025 2.24961 10.4 1.47461 10.4 1.47461Z" fill="#89664C"/>
<path d="M11.75 5.0752C9.59995 5.6252 7.99995 5.6252 7.99995 5.6252C7.99995 5.6252 6.39995 5.6252 4.24995 5.0752L4.07495 5.6002L7.99995 6.5002L11.925 5.6002L11.75 5.0752Z" fill="#3E4347"/>
<path d="M7.99995 6.24961C7.99995 6.24961 6.14995 6.29961 2.82495 5.09961C2.82495 5.09961 4.09995 6.04961 4.77495 6.84961C6.04995 8.39961 9.97495 8.39961 11.25 6.84961C11.9 6.04961 13.2 5.09961 13.2 5.09961C9.84995 6.29961 7.99995 6.24961 7.99995 6.24961Z" fill="#D3976E"/>
<path d="M9.90019 11.9755C8.67519 12.8755 7.3002 12.8755 6.0752 11.9755C5.9252 11.8755 5.8002 12.0505 5.9002 12.2255C6.2752 12.8755 7.0252 13.4505 8.0002 13.4505C8.9752 13.4505 9.7252 12.8755 10.1002 12.2255C10.2002 12.0505 10.0502 11.8755 9.90019 11.9755Z" fill="#664E27"/>
<path d="M5.8001 10.1754C6.32477 10.1754 6.7501 9.75006 6.7501 9.22539C6.7501 8.70072 6.32477 8.27539 5.8001 8.27539C5.27543 8.27539 4.8501 8.70072 4.8501 9.22539C4.8501 9.75006 5.27543 10.1754 5.8001 10.1754Z" fill="#664E27"/>
<path d="M10.2 10.1754C10.7247 10.1754 11.15 9.75006 11.15 9.22539C11.15 8.70072 10.7247 8.27539 10.2 8.27539C9.67533 8.27539 9.25 8.70072 9.25 9.22539C9.25 9.75006 9.67533 10.1754 10.2 10.1754Z" fill="#664E27"/>
</g>
<defs>
<clipPath id="clip0_1605_2">
<rect width="16" height="16" fill="white"/>
</clipPath>
</defs>
</svg>
